<?xml version="1.0" encoding="UTF-8"?><svg id="a" xmlns="http://www.w3.org/2000/svg" viewBox="0 0 830 344"><defs><style>.b,.c{fill:#ff003e;}.d{fill:#b3b3b3;}.e{font-size:8.77px;letter-spacing:0em;}.e,.c,.f{font-family:TwilioSansMono-Regular, Twilio Sans Mono;}.c,.f{font-size:14.62px;letter-spacing:0em;}.f{fill:#fff;}</style></defs><text class="f" transform="translate(1 13.31)"><tspan x="0" y="0">**</tspan><tspan x="0" y="18">++</tspan><tspan x="0" y="36">!==</tspan><tspan x="0" y="54">?.</tspan><tspan x="0" y="72">&lt;/</tspan><tspan x="0" y="90">&lt;!--</tspan><tspan x="0" y="108">&lt;/&gt;</tspan><tspan x="0" y="126">--&gt;</tspan><tspan x="0" y="144">www</tspan><tspan x="0" y="162">#</tspan><tspan x="0" y="180">##</tspan><tspan x="0" y="198">###</tspan><tspan x="0" y="216">-</tspan><tspan x="0" y="234">--</tspan><tspan x="0" y="252">---</tspan><tspan x="0" y="270">----</tspan><tspan x="0" y="288">=</tspan><tspan x="0" y="306">==</tspan><tspan x="0" y="324">===</tspan><tspan x="144.25" y="0">====</tspan><tspan x="144.25" y="18">|-|</tspan><tspan x="144.25" y="36">/=</tspan><tspan x="144.25" y="54">/*</tspan><tspan x="144.25" y="72">*/</tspan><tspan x="144.25" y="90">//</tspan><tspan x="144.25" y="108">///</tspan><tspan x="144.25" y="126">&lt;&gt;</tspan><tspan x="144.25" y="144">&lt;~&gt;</tspan><tspan x="144.25" y="162">?.</tspan><tspan x="144.25" y="180">??</tspan><tspan x="144.25" y="198">..</tspan><tspan x="144.25" y="216">...</tspan><tspan x="144.25" y="234">=~</tspan><tspan x="144.25" y="252">!~</tspan><tspan x="144.25" y="270">&lt;=&gt;</tspan><tspan x="144.25" y="288">:=</tspan><tspan x="144.25" y="306">..&lt;</tspan><tspan x="144.25" y="324">!!</tspan><tspan x="288.49" y="0">?.</tspan><tspan x="288.49" y="18">..</tspan><tspan x="288.49" y="36">=!=</tspan><tspan x="288.49" y="54">=:=</tspan><tspan x="288.49" y="72">:::</tspan><tspan x="288.49" y="90">..=</tspan><tspan x="288.49" y="108">#{</tspan><tspan x="288.49" y="126">#(#_</tspan><tspan x="288.49" y="144">#_(</tspan><tspan x="288.49" y="162">#?</tspan><tspan x="288.49" y="180">#:</tspan><tspan x="288.49" y="198">;;</tspan><tspan x="288.49" y="216">~@</tspan><tspan x="288.49" y="234">&lt;-</tspan><tspan x="288.49" y="252">-&gt;</tspan><tspan x="288.49" y="270">#{}</tspan><tspan x="288.49" y="288">|&gt;</tspan><tspan x="288.49" y="306">&lt;&gt;</tspan><tspan x="288.49" y="324">=&gt;&gt;</tspan><tspan x="432.74" y="0">=&lt;&lt;</tspan><tspan x="432.74" y="18">&gt;=&gt;</tspan><tspan x="432.74" y="36">&lt;=&lt;</tspan><tspan x="432.74" y="54">=&gt;=</tspan><tspan x="432.74" y="72">=&lt;=</tspan><tspan x="432.74" y="90">&lt;$</tspan><tspan x="432.74" y="108">&lt;$&gt;</tspan><tspan x="432.74" y="126">$&gt;</tspan><tspan x="432.74" y="144">&lt;+</tspan><tspan x="432.74" y="162">&lt;+&gt;</tspan><tspan x="432.74" y="180">+&gt;</tspan><tspan x="432.74" y="198">&lt;*</tspan><tspan x="432.74" y="216">&lt;*&gt;</tspan><tspan x="432.74" y="234">*&gt;</tspan><tspan x="432.74" y="252">&lt;&gt;</tspan><tspan x="432.74" y="270">&lt;|&gt;</tspan><tspan x="432.74" y="288">.=</tspan><tspan x="432.74" y="306">#=</tspan><tspan x="432.74" y="324">+++</tspan><tspan x="576.99" y="0">***</tspan><tspan x="576.99" y="18">&lt;|||</tspan><tspan x="576.99" y="36">&lt;||</tspan><tspan x="576.99" y="54">&lt;|</tspan><tspan x="576.99" y="72">|&gt;</tspan><tspan x="576.99" y="90">|||&gt;</tspan><tspan x="576.99" y="108">&lt;-</tspan><tspan x="576.99" y="126">[|</tspan><tspan x="576.99" y="144">|]</tspan><tspan x="576.99" y="162">~-</tspan><tspan x="576.99" y="180">~~</tspan><tspan x="576.99" y="198">&amp;&amp;</tspan><tspan x="576.99" y="216">/\</tspan><tspan x="576.99" y="234">\/</tspan><tspan x="576.99" y="252">-|</tspan><tspan x="576.99" y="270">_|_</tspan><tspan x="576.99" y="288">|-</tspan><tspan x="576.99" y="306">||-</tspan><tspan x="576.99" y="324">|=</tspan><tspan x="721.23" y="0">||=</tspan><tspan x="721.23" y="18">&lt;?</tspan><tspan x="721.23" y="36">?&gt;</tspan><tspan x="721.23" y="54">{{</tspan><tspan x="721.23" y="72">}}</tspan><tspan x="721.23" y="90">{{#</tspan><tspan x="721.23" y="108">&lt;::</tspan><tspan x="721.23" y="126">&gt;::</tspan><tspan x="721.23" y="144">{|</tspan><tspan x="721.23" y="162">|}</tspan><tspan x="721.23" y="180">#[</tspan><tspan x="721.23" y="198">]#</tspan><tspan x="721.23" y="216">::=</tspan><tspan x="721.23" y="234">#!</tspan><tspan x="721.23" y="252">#=</tspan><tspan x="721.23" y="270">(::)</tspan></text><text class="c" transform="translate(70.2 13.31)"><tspan x="0" y="0">**</tspan><tspan x="0" y="18">++</tspan><tspan x="0" y="36">!==</tspan><tspan x="0" y="54">?.</tspan><tspan x="0" y="72">&lt;/</tspan><tspan x="0" y="90">&lt;!--</tspan><tspan x="0" y="108">&lt;/&gt;</tspan><tspan x="0" y="126">--&gt;</tspan><tspan x="0" y="144">www</tspan><tspan x="0" y="162">#</tspan><tspan x="0" y="180">##</tspan><tspan x="0" y="198">###</tspan><tspan x="0" y="216">-</tspan><tspan x="0" y="234">--</tspan><tspan x="0" y="252">---</tspan><tspan x="0" y="270">----</tspan><tspan x="0" y="288">=</tspan><tspan x="0" y="306">==</tspan><tspan x="0" y="324">===</tspan><tspan x="144.25" y="0">====</tspan><tspan x="144.25" y="18">|-|</tspan><tspan x="144.25" y="36">/=</tspan><tspan x="144.25" y="54">/*</tspan><tspan x="144.25" y="72">*/</tspan><tspan x="144.25" y="90">//</tspan><tspan x="144.25" y="108">///</tspan><tspan x="144.25" y="126">&lt;&gt;</tspan><tspan x="144.25" y="144">&lt;~&gt;</tspan><tspan x="144.25" y="162">?.</tspan><tspan x="144.25" y="180">??</tspan><tspan x="144.25" y="198">..</tspan><tspan x="144.25" y="216">...</tspan><tspan x="144.25" y="234">=~</tspan><tspan x="144.25" y="252">!~</tspan><tspan x="144.25" y="270">&lt;=&gt;</tspan><tspan x="144.25" y="288">:=</tspan><tspan x="144.25" y="306">..&lt;</tspan><tspan x="144.25" y="324">!!</tspan><tspan x="288.49" y="0">?.</tspan><tspan x="288.49" y="18">..</tspan><tspan x="288.49" y="36">=!=</tspan><tspan x="288.49" y="54">=:=</tspan><tspan x="288.49" y="72">:::</tspan><tspan x="288.49" y="90">..=</tspan><tspan x="288.49" y="108">#{</tspan><tspan x="288.49" y="126">#(#_</tspan><tspan x="288.49" y="144">#_(</tspan><tspan x="288.49" y="162">#?</tspan><tspan x="288.49" y="180">#:</tspan><tspan x="288.49" y="198">;;</tspan><tspan x="288.49" y="216">~@</tspan><tspan x="288.49" y="234">&lt;-</tspan><tspan x="288.49" y="252">-&gt;</tspan><tspan x="288.49" y="270">#{}</tspan><tspan x="288.49" y="288">|&gt;</tspan><tspan x="288.49" y="306">&lt;&gt;</tspan><tspan x="288.49" y="324">=&gt;&gt;</tspan><tspan x="432.74" y="0">=&lt;&lt;</tspan><tspan x="432.74" y="18">&gt;=&gt;</tspan><tspan x="432.74" y="36">&lt;=&lt;</tspan><tspan x="432.74" y="54">=&gt;=</tspan><tspan x="432.74" y="72">=&lt;=</tspan><tspan x="432.74" y="90">&lt;$</tspan><tspan x="432.74" y="108">&lt;$&gt;</tspan><tspan x="432.74" y="126">$&gt;</tspan><tspan x="432.74" y="144">&lt;+</tspan><tspan x="432.74" y="162">&lt;+&gt;</tspan><tspan x="432.74" y="180">+&gt;</tspan><tspan x="432.74" y="198">&lt;*</tspan><tspan x="432.74" y="216">&lt;*&gt;</tspan><tspan x="432.74" y="234">*&gt;</tspan><tspan x="432.74" y="252">&lt;&gt;</tspan><tspan x="432.74" y="270">&lt;|&gt;</tspan><tspan x="432.74" y="288">.=</tspan><tspan x="432.74" y="306">#=</tspan><tspan x="432.74" y="324">+++</tspan><tspan x="576.99" y="0">***</tspan><tspan x="576.99" y="18">&lt;|||</tspan><tspan x="576.99" y="36">&lt;||</tspan><tspan x="576.99" y="54">&lt;|</tspan><tspan x="576.99" y="72">|&gt;</tspan><tspan x="576.99" y="90">|||&gt;</tspan><tspan x="576.99" y="108">&lt;-</tspan><tspan x="576.99" y="126">[|</tspan><tspan x="576.99" y="144">|]</tspan><tspan x="576.99" y="162">~-</tspan><tspan x="576.99" y="180">~~</tspan><tspan x="576.99" y="198">&amp;&amp;</tspan><tspan x="576.99" y="216">/\</tspan><tspan x="576.99" y="234">\/</tspan><tspan x="576.99" y="252">-|</tspan><tspan x="576.99" y="270">_|_</tspan><tspan x="576.99" y="288">|-</tspan><tspan x="576.99" y="306">||-</tspan><tspan x="576.99" y="324">|=</tspan><tspan x="721.23" y="0">||=</tspan><tspan x="721.23" y="18">&lt;?</tspan><tspan x="721.23" y="36">?&gt;</tspan><tspan x="721.23" y="54">{{</tspan><tspan x="721.23" y="72">}}</tspan><tspan x="721.23" y="90">{{#</tspan><tspan x="721.23" y="108">&lt;::</tspan><tspan x="721.23" y="126">&gt;::</tspan><tspan x="721.23" y="144">{|</tspan><tspan x="721.23" y="162">|}</tspan><tspan x="721.23" y="180">#[</tspan><tspan x="721.23" y="198">]#</tspan><tspan x="721.23" y="216">::=</tspan><tspan x="721.23" y="234">#!</tspan><tspan x="721.23" y="252">#=</tspan><tspan x="721.23" y="270">(::)</tspan></text><text class="e" transform="translate(40.74 11.27)"><tspan class="d" x="0" y="0">-&gt;</tspan><tspan class="b" x="10.47" y="0"> </tspan><tspan class="d" x="0" y="18">-&gt;</tspan><tspan class="b" x="10.47" y="18"> </tspan><tspan class="d" x="0" y="36">-&gt;</tspan><tspan class="b" x="10.47" y="36"> </tspan><tspan class="d" x="0" y="54">-&gt;</tspan><tspan class="b" x="10.47" y="54"> </tspan><tspan class="d" x="0" y="72">-&gt;</tspan><tspan class="b" x="10.47" y="72"> </tspan><tspan class="d" x="0" y="90">-&gt;</tspan><tspan class="b" x="10.47" y="90"> </tspan><tspan class="d" x="0" y="108">-&gt;</tspan><tspan class="b" x="10.47" y="108"> </tspan><tspan class="d" x="0" y="126">-&gt;</tspan><tspan class="b" x="10.47" y="126"> </tspan><tspan class="d" x="0" y="144">-&gt;</tspan><tspan class="b" x="10.47" y="144"> </tspan><tspan class="d" x="0" y="162">-&gt;</tspan><tspan class="b" x="10.47" y="162"> </tspan><tspan class="d" x="0" y="180">-&gt;</tspan><tspan class="b" x="10.47" y="180"> </tspan><tspan class="d" x="0" y="198">-&gt;</tspan><tspan class="b" x="10.47" y="198"> </tspan><tspan class="d" x="0" y="216">-&gt;</tspan><tspan class="b" x="10.47" y="216"> </tspan><tspan class="d" x="0" y="234">-&gt;</tspan><tspan class="b" x="10.47" y="234"> </tspan><tspan class="d" x="0" y="252">-&gt;</tspan><tspan class="b" x="10.47" y="252"> </tspan><tspan class="d" x="0" y="270">-&gt;</tspan><tspan class="b" x="10.47" y="270"> </tspan><tspan class="d" x="0" y="288">-&gt;</tspan><tspan class="b" x="10.47" y="288"> </tspan><tspan class="d" x="0" y="306">-&gt;</tspan><tspan class="b" x="10.47" y="306"> </tspan><tspan class="d" x="0" y="324">-&gt;</tspan><tspan class="b" x="10.47" y="324"> </tspan><tspan class="d" x="144.17" y="0">-&gt;</tspan><tspan class="b" x="154.64" y="0"> </tspan><tspan class="d" x="144.17" y="18">-&gt;</tspan><tspan class="b" x="154.64" y="18"> </tspan><tspan class="d" x="144.17" y="36">-&gt;</tspan><tspan class="b" x="154.64" y="36"> </tspan><tspan class="d" x="144.17" y="54">-&gt;</tspan><tspan class="b" x="154.64" y="54"> </tspan><tspan class="d" x="144.17" y="72">-&gt;</tspan><tspan class="b" x="154.64" y="72"> </tspan><tspan class="d" x="144.17" y="90">-&gt;</tspan><tspan class="b" x="154.64" y="90"> </tspan><tspan class="d" x="144.17" y="108">-&gt;</tspan><tspan class="b" x="154.64" y="108"> </tspan><tspan class="d" x="144.17" y="126">-&gt;</tspan><tspan class="b" x="154.64" y="126"> </tspan><tspan class="d" x="144.17" y="144">-&gt;</tspan><tspan class="b" x="154.64" y="144"> </tspan><tspan class="d" x="144.17" y="162">-&gt;</tspan><tspan class="b" x="154.64" y="162"> </tspan><tspan class="d" x="144.17" y="180">-&gt;</tspan><tspan class="b" x="154.64" y="180"> </tspan><tspan class="d" x="144.17" y="198">-&gt;</tspan><tspan class="b" x="154.64" y="198"> </tspan><tspan class="d" x="144.17" y="216">-&gt;</tspan><tspan class="b" x="154.64" y="216"> </tspan><tspan class="d" x="144.17" y="234">-&gt;</tspan><tspan class="b" x="154.64" y="234"> </tspan><tspan class="d" x="144.17" y="252">-&gt;</tspan><tspan class="b" x="154.64" y="252"> </tspan><tspan class="d" x="144.17" y="270">-&gt;</tspan><tspan class="b" x="154.64" y="270"> </tspan><tspan class="d" x="144.17" y="288">-&gt;</tspan><tspan class="b" x="154.64" y="288"> </tspan><tspan class="d" x="144.17" y="306">-&gt;</tspan><tspan class="b" x="154.64" y="306"> </tspan><tspan class="d" x="144.17" y="324">-&gt;</tspan><tspan class="b" x="154.64" y="324"> </tspan><tspan class="d" x="288.33" y="0">-&gt;</tspan><tspan class="b" x="298.81" y="0"> </tspan><tspan class="d" x="288.33" y="18">-&gt;</tspan><tspan class="b" x="298.81" y="18"> </tspan><tspan class="d" x="288.33" y="36">-&gt;</tspan><tspan class="b" x="298.81" y="36"> </tspan><tspan class="d" x="288.33" y="54">-&gt;</tspan><tspan class="b" x="298.81" y="54"> </tspan><tspan class="d" x="288.33" y="72">-&gt;</tspan><tspan class="b" x="298.81" y="72"> </tspan><tspan class="d" x="288.33" y="90">-&gt;</tspan><tspan class="b" x="298.81" y="90"> </tspan><tspan class="d" x="288.33" y="108">-&gt;</tspan><tspan class="b" x="298.81" y="108"> </tspan><tspan class="d" x="288.33" y="126">-&gt;</tspan><tspan class="b" x="298.81" y="126"> </tspan><tspan class="d" x="288.33" y="144">-&gt;</tspan><tspan class="b" x="298.81" y="144"> </tspan><tspan class="d" x="288.33" y="162">-&gt;</tspan><tspan class="b" x="298.81" y="162"> </tspan><tspan class="d" x="288.33" y="180">-&gt;</tspan><tspan class="b" x="298.81" y="180"> </tspan><tspan class="d" x="288.33" y="198">-&gt;</tspan><tspan class="b" x="298.81" y="198"> </tspan><tspan class="d" x="288.33" y="216">-&gt;</tspan><tspan class="b" x="298.81" y="216"> </tspan><tspan class="d" x="288.33" y="234">-&gt;</tspan><tspan class="b" x="298.81" y="234"> </tspan><tspan class="d" x="288.33" y="252">-&gt;</tspan><tspan class="b" x="298.81" y="252"> </tspan><tspan class="d" x="288.33" y="270">-&gt;</tspan><tspan class="b" x="298.81" y="270"> </tspan><tspan class="d" x="288.33" y="288">-&gt;</tspan><tspan class="b" x="298.81" y="288"> </tspan><tspan class="d" x="288.33" y="306">-&gt;</tspan><tspan class="b" x="298.81" y="306"> </tspan><tspan class="d" x="288.33" y="324">-&gt;</tspan><tspan class="b" x="298.81" y="324"> </tspan><tspan class="d" x="432.5" y="0">-&gt;</tspan><tspan class="b" x="442.97" y="0"> </tspan><tspan class="d" x="432.5" y="18">-&gt;</tspan><tspan class="b" x="442.97" y="18"> </tspan><tspan class="d" x="432.5" y="36">-&gt;</tspan><tspan class="b" x="442.97" y="36"> </tspan><tspan class="d" x="432.5" y="54">-&gt;</tspan><tspan class="b" x="442.97" y="54"> </tspan><tspan class="d" x="432.5" y="72">-&gt;</tspan><tspan class="b" x="442.97" y="72"> </tspan><tspan class="d" x="432.5" y="90">-&gt;</tspan><tspan class="b" x="442.97" y="90"> </tspan><tspan class="d" x="432.5" y="108">-&gt;</tspan><tspan class="b" x="442.97" y="108"> </tspan><tspan class="d" x="432.5" y="126">-&gt;</tspan><tspan class="b" x="442.97" y="126"> </tspan><tspan class="d" x="432.5" y="144">-&gt;</tspan><tspan class="b" x="442.97" y="144"> </tspan><tspan class="d" x="432.5" y="162">-&gt;</tspan><tspan class="b" x="442.97" y="162"> </tspan><tspan class="d" x="432.5" y="180">-&gt;</tspan><tspan class="b" x="442.97" y="180"> </tspan><tspan class="d" x="432.5" y="198">-&gt;</tspan><tspan class="b" x="442.97" y="198"> </tspan><tspan class="d" x="432.5" y="216">-&gt;</tspan><tspan class="b" x="442.97" y="216"> </tspan><tspan class="d" x="432.5" y="234">-&gt;</tspan><tspan class="b" x="442.97" y="234"> </tspan><tspan class="d" x="432.5" y="252">-&gt;</tspan><tspan class="b" x="442.97" y="252"> </tspan><tspan class="d" x="432.5" y="270">-&gt;</tspan><tspan class="b" x="442.97" y="270"> </tspan><tspan class="d" x="432.5" y="288">-&gt;</tspan><tspan class="b" x="442.97" y="288"> </tspan><tspan class="d" x="432.5" y="306">-&gt;</tspan><tspan class="b" x="442.97" y="306"> </tspan><tspan class="d" x="432.5" y="324">-&gt;</tspan><tspan class="b" x="442.97" y="324"> </tspan><tspan class="d" x="576.67" y="0">-&gt;</tspan><tspan class="b" x="587.14" y="0"> </tspan><tspan class="d" x="576.67" y="18">-&gt;</tspan><tspan class="b" x="587.14" y="18"> </tspan><tspan class="d" x="576.67" y="36">-&gt;</tspan><tspan class="b" x="587.14" y="36"> </tspan><tspan class="d" x="576.67" y="54">-&gt;</tspan><tspan class="b" x="587.14" y="54"> </tspan><tspan class="d" x="576.67" y="72">-&gt;</tspan><tspan class="b" x="587.14" y="72"> </tspan><tspan class="d" x="576.67" y="90">-&gt;</tspan><tspan class="b" x="587.14" y="90"> </tspan><tspan class="d" x="576.67" y="108">-&gt;</tspan><tspan class="b" x="587.14" y="108"> </tspan><tspan class="d" x="576.67" y="126">-&gt;</tspan><tspan class="b" x="587.14" y="126"> </tspan><tspan class="d" x="576.67" y="144">-&gt;</tspan><tspan class="b" x="587.14" y="144"> </tspan><tspan class="d" x="576.67" y="162">-&gt;</tspan><tspan class="b" x="587.14" y="162"> </tspan><tspan class="d" x="576.67" y="180">-&gt;</tspan><tspan class="b" x="587.14" y="180"> </tspan><tspan class="d" x="576.67" y="198">-&gt;</tspan><tspan class="b" x="587.14" y="198"> </tspan><tspan class="d" x="576.67" y="216">-&gt;</tspan><tspan class="b" x="587.14" y="216"> </tspan><tspan class="d" x="576.67" y="234">-&gt;</tspan><tspan class="b" x="587.14" y="234"> </tspan><tspan class="d" x="576.67" y="252">-&gt;</tspan><tspan class="b" x="587.14" y="252"> </tspan><tspan class="d" x="576.67" y="270">-&gt;</tspan><tspan class="b" x="587.14" y="270"> </tspan><tspan class="d" x="576.67" y="288">-&gt;</tspan><tspan class="b" x="587.14" y="288"> </tspan><tspan class="d" x="576.67" y="306">-&gt;</tspan><tspan class="b" x="587.14" y="306"> </tspan><tspan class="d" x="576.67" y="324">-&gt;</tspan><tspan class="b" x="587.14" y="324"> </tspan><tspan class="d" x="720.83" y="0">-&gt;</tspan><tspan class="b" x="731.31" y="0"> </tspan><tspan class="d" x="720.83" y="18">-&gt;</tspan><tspan class="b" x="731.31" y="18"> </tspan><tspan class="d" x="720.83" y="36">-&gt;</tspan><tspan class="b" x="731.31" y="36"> </tspan><tspan class="d" x="720.83" y="54">-&gt;</tspan><tspan class="b" x="731.31" y="54"> </tspan><tspan class="d" x="720.83" y="72">-&gt;</tspan><tspan class="b" x="731.31" y="72"> </tspan><tspan class="d" x="720.83" y="90">-&gt;</tspan><tspan class="b" x="731.31" y="90"> </tspan><tspan class="d" x="720.83" y="108">-&gt;</tspan><tspan class="b" x="731.31" y="108"> </tspan><tspan class="d" x="720.83" y="126">-&gt;</tspan><tspan class="b" x="731.31" y="126"> </tspan><tspan class="d" x="720.83" y="144">-&gt;</tspan><tspan class="b" x="731.31" y="144"> </tspan><tspan class="d" x="720.83" y="162">-&gt;</tspan><tspan class="b" x="731.31" y="162"> </tspan><tspan class="d" x="720.83" y="180">-&gt;</tspan><tspan class="b" x="731.31" y="180"> </tspan><tspan class="d" x="720.83" y="198">-&gt;</tspan><tspan class="b" x="731.31" y="198"> </tspan><tspan class="d"><tspan x="720.83" y="216">-&gt;</tspan></tspan></text></svg>